# xmcd
# 
# Track frame offsets:
#     150
#     14042
#     26737
#     41742
#     59037
#     74075
#     98422
#     112667
#     125457
#     139450
#     153707
#     169537
#     188975
#     202557
# 
# Disc length: 2874
# 
# Revision: 4
# Processed by: cddbd v1.5.2PL0 Copyright (c) Steve Scherf et al.
# Submitted via: fre:ac v1.0.31
# 
DISCID=c70b380e
DTITLE=Emmylou Harris - Last Date
DYEAR=1982
DGENRE=Country
TTITLE0=I'm Movin' On
TTITLE1=It's Not Love (But It's Not Bad)
TTITLE2=So Sad (To Watch Good Love Go Bad)
TTITLE3=Return of the Grievous Angel
TTITLE4=Restless
TTITLE5=Racing in the Street
TTITLE6=Long May You Run
TTITLE7=We'll Sweep Out the Ashes (In the Morning)
TTITLE8=Juanita
TTITLE9=Devil in Disguise
TTITLE10=(Lost His Love) On Our Last Date
TTITLE11=Buckaroo/Love's Gonna Live Here (Medley)
TTITLE12=Another Pot O' Tea
TTITLE13=Maybe Tonight
EXTD=Recorded 1982, remastered 2000 Eminent Records
EXTT0=
EXTT1=
EXTT2=
EXTT3=
EXTT4=
EXTT5=
EXTT6=
EXTT7=
EXTT8=
EXTT9=
EXTT10=
EXTT11=
EXTT12=
EXTT13=
PLAYORDER=
